<?xml version="1.0" encoding="UTF-8"?>
<svg width="385px" height="265px" viewBox="0 0 385 265" version="1.1" xmlns="http://www.w3.org/2000/svg" xmlns:xlink="http://www.w3.org/1999/xlink">
    <!-- Generator: Sketch 49 (51002) - http://www.bohemiancoding.com/sketch -->
    <title>window copy 2</title>
    <desc>Created with Sketch.</desc>
    <defs>
        <filter x="-4.0%" y="-5.0%" width="107.9%" height="111.7%" filterUnits="objectBoundingBox" id="filter-1">
            <feOffset dx="0" dy="2" in="SourceAlpha" result="shadowOffsetOuter1"></feOffset>
            <feGaussianBlur stdDeviation="4.5" in="shadowOffsetOuter1" result="shadowBlurOuter1"></feGaussianBlur>
            <feColorMatrix values="0 0 0 0 0   0 0 0 0 0   0 0 0 0 0  0 0 0 0.108214447 0" type="matrix" in="shadowBlurOuter1" result="shadowMatrixOuter1"></feColorMatrix>
            <feMerge>
                <feMergeNode in="shadowMatrixOuter1"></feMergeNode>
                <feMergeNode in="SourceGraphic"></feMergeNode>
            </feMerge>
        </filter>
        <rect id="path-2" x="0" y="0" width="366.156751" height="247.054767" rx="2"></rect>
    </defs>
    <g id="Page-1" stroke="none" stroke-width="1" fill="none" fill-rule="evenodd">
        <g id="homepage-copy-5" transform="translate(-192.000000, -348.000000)">
            <g id="volet">
                <g id="Group-4" transform="translate(104.000000, 355.000000)">
                    <g id="window-copy-2" filter="url(#filter-1)" transform="translate(97.459337, 0.000000)">
                        <g id="Rectangle-Copy">
                            <mask id="mask-3" fill="white">
                                <use xlink:href="#path-2"></use>
                            </mask>
                            <use id="Mask" fill="#FFFFFF" xlink:href="#path-2"></use>
                            <g id="Group-3" mask="url(#mask-3)">
                                <g id="Group-2">
                                    <rect id="Rectangle-Copy" fill="#F1F1F1" x="0" y="0" width="366.0274" height="29.7068694"></rect>
                                    <rect id="Rectangle" fill="#FFFFFF" x="59.9824806" y="5.68854946" width="278.523546" height="18.9618315" rx="2"></rect>
                                </g>
                                <g id="Group" transform="translate(7.056762, 9.480916)">
                                    <ellipse id="Oval" fill="#FF6057" cx="5.29257182" cy="4.74045789" rx="5.29257182" ry="4.74045789"></ellipse>
                                    <ellipse id="Oval-Copy" fill="#FFC12E" cx="20.8174492" cy="4.74045789" rx="5.29257182" ry="4.74045789"></ellipse>
                                    <ellipse id="Oval-Copy-2" fill="#28CA40" cx="37.753679" cy="4.74045789" rx="5.29257182" ry="4.74045789"></ellipse>
                                </g>
                            </g>
                        </g>
                        <g id="Group-6" opacity="0.122395833" transform="translate(105.832781, 64.727744)" fill="#000000">
                            <path d="M55.1397377,77.7595853 C42.6691442,77.7595853 32.5171087,67.6131126 32.5171087,55.1369563 C32.5171087,42.6635815 42.6691442,32.5143273 55.1397377,32.5143273 C67.615894,32.5143273 77.7623667,42.6635815 77.7623667,55.1369563 C77.7623667,67.6131126 67.615894,77.7595853 55.1397377,77.7595853 M100.379433,42.7286657 L95.6967023,42.7286657 C94.8990026,40.1158378 93.8470848,37.6187152 92.5804446,35.2461984 L95.905862,31.9235623 C99.7658606,28.0607824 99.768642,21.7943342 95.905862,17.9282165 L92.3484775,14.370832 C90.4932973,12.5162081 87.9733674,11.4726345 85.3466326,11.4726345 C82.7193414,11.4726345 80.2055305,12.5162081 78.3447876,14.370832 L75.0193702,17.6934681 C72.6496348,16.4323906 70.1525122,15.3832542 67.5424656,14.5772104 L67.5424656,9.89726111 C67.5424656,4.42851258 63.1117279,0 57.6452044,0 L52.6175827,0 C47.1482779,0 42.7197653,4.42851258 42.7197653,9.89726111 L42.7197653,14.5772104 C40.1097187,15.3749101 37.6098147,16.4240464 35.2406356,17.6934681 L31.9202247,14.370832 C28.0552196,10.505827 21.78599,10.505827 17.9198724,14.370832 L14.3686069,17.9254351 C10.5024893,21.7882151 10.5024893,28.0574447 14.3686069,31.9207809 L17.6879053,35.243417 C16.4268278,37.6187152 15.3749101,40.1158378 14.5716476,42.7258844 L9.89726111,42.7258844 C4.42851258,42.7258844 0,47.1538407 0,52.6231455 L0,57.6479858 C0,63.1111716 4.42851258,67.5452469 9.89726111,67.5452469 L14.5749853,67.5452469 C15.3749101,70.1525122 16.4240464,72.6551975 17.6906867,75.0249329 L14.3686069,78.3503504 C10.5052707,82.2103489 10.5052707,88.4795785 14.3652693,92.3456961 L17.9226538,95.9030806 C19.777834,97.7521418 22.2972076,98.7957154 24.9217174,98.7957154 L24.9244987,98.7957154 C27.5517899,98.7957154 30.0656008,97.7521418 31.9235623,95.9030806 L35.2489798,92.5776632 C37.6159338,93.8415221 40.1186191,94.8906585 42.7258844,95.6933646 L42.7258844,100.376652 C42.7258844,105.839837 47.1543969,110.273913 52.6231455,110.273913 L57.6507672,110.273913 C63.1172906,110.273913 67.5485846,105.839837 67.5485846,100.376652 L67.5485846,95.6933646 C70.1586312,94.8934398 72.6551975,93.8443035 75.0249329,92.5776632 L78.3531317,95.9030806 C80.2055305,97.7577045 82.7282418,98.7957154 85.3549767,98.7957154 C87.9822679,98.7957154 90.4932973,97.7521418 92.3568217,95.9030806 L95.9086434,92.3456961 C99.7714234,88.4795785 99.768642,82.216468 95.9086434,78.3503504 L92.583226,75.0304957 C93.8470848,72.6551975 94.8962212,70.1525122 95.6994837,67.5485846 L100.382214,67.5485846 C105.850963,67.5485846 110.279475,63.113953 110.279475,57.6507672 L110.279475,52.6259268 C110.276694,47.1627411 105.8454,42.7286657 100.379433,42.7286657" id="Fill-1"></path>
                            <path d="M128.659388,101.952828 C123.116902,101.952828 118.604886,97.443285 118.604886,91.8983267 C118.604886,86.3546045 123.116902,81.8438249 128.659388,81.8438249 C134.204346,81.8438249 138.71389,86.3546045 138.71389,91.8983267 C138.71389,97.443285 134.204346,101.952828 128.659388,101.952828 M148.765919,86.3835309 L146.684706,86.3835309 C146.330172,85.222274 145.862653,84.1124417 145.299702,83.0579898 L146.777665,81.5812627 C148.49322,79.8644716 148.494457,77.0793835 146.777665,75.361109 L145.196606,73.7800492 C144.372081,72.9557719 143.252112,72.4919614 142.084675,72.4919614 C140.91699,72.4919614 139.79974,72.9557719 138.972744,73.7800492 L137.49478,75.2567764 C136.441564,74.6962975 135.331732,74.2300146 134.171711,73.8717729 L134.171711,71.7917955 C134.171711,69.3612406 132.202495,67.3930128 129.772929,67.3930128 L127.53843,67.3930128 C125.107628,67.3930128 123.1394,69.3612406 123.1394,71.7917955 L123.1394,73.8717729 C121.97938,74.2263061 120.868311,74.692589 119.815343,75.2567764 L118.339604,73.7800492 C116.621824,72.0622692 113.8355,72.0622692 112.117226,73.7800492 L110.538885,75.3598728 C108.820611,77.0766639 108.820611,79.8629882 110.538885,81.5800265 L112.014129,83.0567537 C111.45365,84.1124417 110.986131,85.222274 110.629126,86.3822947 L108.551621,86.3822947 C106.121066,86.3822947 104.152838,88.3502753 104.152838,90.7810774 L104.152838,93.0143398 C104.152838,95.4424224 106.121066,97.4131225 108.551621,97.4131225 L110.630609,97.4131225 C110.986131,98.5719071 111.452414,99.6842117 112.015365,100.737427 L110.538885,102.215391 C108.821847,103.930946 108.821847,106.71727 110.537402,108.435544 L112.118462,110.016604 C112.942986,110.838409 114.062708,111.30222 115.229157,111.30222 L115.230393,111.30222 C116.398078,111.30222 117.515327,110.838409 118.341088,110.016604 L119.819051,108.538641 C120.871031,109.100356 121.983335,109.566639 123.14212,109.923397 L123.14212,112.004858 C123.14212,114.43294 125.110348,116.403641 127.540903,116.403641 L129.775401,116.403641 C132.204967,116.403641 134.174431,114.43294 134.174431,112.004858 L134.174431,109.923397 C135.334452,109.567875 136.444037,109.101592 137.497253,108.538641 L138.976452,110.016604 C139.79974,110.840881 140.920945,111.30222 142.088383,111.30222 C143.256068,111.30222 144.372081,110.838409 145.200314,110.016604 L146.778902,108.435544 C148.495693,106.71727 148.494457,103.933665 146.778902,102.215391 L145.300938,100.7399 C145.862653,99.6842117 146.328936,98.5719071 146.685942,97.4146059 L148.767155,97.4146059 C151.19771,97.4146059 153.165938,95.4436585 153.165938,93.015576 L153.165938,90.7823136 C153.164702,88.354231 151.195238,86.3835309 148.765919,86.3835309" id="Fill-1"></path>
                        </g>
                    </g>
                </g>
            </g>
        </g>
    </g>
</svg>