<?xml version="1.0" encoding="UTF-8"?>
<svg width="15px" height="19px" viewBox="0 0 15 19" version="1.1" xmlns="http://www.w3.org/2000/svg" xmlns:xlink="http://www.w3.org/1999/xlink">
    <!-- Generator: Sketch 49.3 (51167) - http://www.bohemiancoding.com/sketch -->
    <title>icon localisation</title>
    <desc>Created with Sketch.</desc>
    <defs>
        <path d="M6.51187959,16.5841911 C6.51187959,16.5841911 12.8868796,10.3353833 12.8868796,6.81456804 C12.8868796,3.29375276 10.0326949,0.439568038 6.51187959,0.439568038 C2.99106431,0.439568038 0.136879589,3.29375276 0.136879589,6.81456804 C0.136879589,10.3353833 6.51187959,16.5841911 6.51187959,16.5841911 Z" id="path-1"></path>
    </defs>
    <g id="Page-1" stroke="none" stroke-width="1" fill="none" fill-rule="evenodd">
        <g id="homepage-information-submit-copy-4" transform="translate(-80.000000, -308.000000)">
            <g id="volet">
                <g id="icon-localisation" transform="translate(81.000000, 308.825562)">
                    <mask id="mask-2" fill="white">
                        <use xlink:href="#path-1"></use>
                    </mask>
                    <path stroke="#2A2B43" stroke-width="0.8" d="M6.23187826,16.869847 C6.18024535,16.8192361 6.08500635,16.7241291 5.95237216,16.5888881 C5.73220109,16.3643898 5.48709556,16.1085167 5.22325909,15.8256173 C4.4695229,15.0174217 3.715758,14.1536896 3.01141596,13.2687913 C2.31594121,12.3950333 1.70600943,11.5465724 1.20531874,10.7390866 C0.260313963,9.21503608 -0.263120411,7.89523569 -0.263120411,6.81456804 C-0.263120411,3.07283886 2.77015041,0.0395680377 6.51187959,0.0395680377 C10.2536088,0.0395680377 13.2868796,3.07283886 13.2868796,6.81456804 C13.2868796,7.89523569 12.7634452,9.21503608 11.8184404,10.7390866 C11.3177497,11.5465724 10.707818,12.3950333 10.0123432,13.2687913 C9.30800118,14.1536896 8.55423627,15.0174217 7.80050009,15.8256173 C7.53666362,16.1085167 7.29155809,16.3643898 7.07138702,16.5888881 C6.93875283,16.7241291 6.84351383,16.8192361 6.79188091,16.869847 L6.51187959,17.1443057 L6.23187826,16.869847 Z"></path>
                    <circle id="Oval" stroke="#2A2B43" stroke-width="0.8" mask="url(#mask-2)" cx="6.51187959" cy="7" r="3.19680786"></circle>
                </g>
            </g>
        </g>
    </g>
</svg>