<?xml version="1.0" encoding="UTF-8"?>
<svg width="18px" height="14px" viewBox="0 0 18 14" version="1.1" xmlns="http://www.w3.org/2000/svg" xmlns:xlink="http://www.w3.org/1999/xlink">
    <!-- Generator: Sketch 49.3 (51167) - http://www.bohemiancoding.com/sketch -->
    <title>icon description</title>
    <desc>Created with Sketch.</desc>
    <defs>
        <path d="M3.32009346,2.14501953 C3.56550952,1.3181496 4.33116802,0.715026855 5.23769338,0.715026855 L7.01165771,0.715026855 C7.91818308,0.715026855 8.68384158,1.3181496 8.92925764,2.14501953 L15.3520508,2.14501953 C16.4566203,2.14501953 17.3520508,3.04045003 17.3520508,4.14501953 L17.3520508,11.4029541 C17.3520508,12.5075236 16.4566203,13.4029541 15.3520508,13.4029541 L2.67126465,13.4029541 C1.56669515,13.4029541 0.671264648,12.5075236 0.671264648,11.4029541 L0.671264648,4.14501953 C0.671264648,3.04045003 1.56669515,2.14501953 2.67126465,2.14501953 L3.32009346,2.14501953 Z" id="path-1"></path>
    </defs>
    <g id="Page-1" stroke="none" stroke-width="1" fill="none" fill-rule="evenodd">
        <g id="homepage-information-submit-copy-4" transform="translate(-77.000000, -256.000000)">
            <g id="volet">
                <g id="icon-description" transform="translate(77.000000, 256.000000)">
                    <g id="Rectangle">
                        <use fill="#FFFFFF" fill-rule="evenodd" xlink:href="#path-1"></use>
                        <path stroke="#2A2B43" stroke-width="0.8" d="M3.70355991,2.25883287 L3.61861934,2.54501953 L2.67126465,2.54501953 C1.78760905,2.54501953 1.07126465,3.26136393 1.07126465,4.14501953 L1.07126465,11.4029541 C1.07126465,12.2866097 1.78760905,13.0029541 2.67126465,13.0029541 L15.3520508,13.0029541 C16.2357064,13.0029541 16.9520508,12.2866097 16.9520508,11.4029541 L16.9520508,4.14501953 C16.9520508,3.26136393 16.2357064,2.54501953 15.3520508,2.54501953 L8.63073175,2.54501953 L8.54579118,2.25883287 C8.34602658,1.58577447 7.72474483,1.11502686 7.01165771,1.11502686 L5.23769338,1.11502686 C4.52460626,1.11502686 3.90332452,1.58577447 3.70355991,2.25883287 Z"></path>
                    </g>
                </g>
            </g>
        </g>
    </g>
</svg>