<svg width="80" height="81" xmlns="http://www.w3.org/2000/svg" xmlns:xlink="http://www.w3.org/1999/xlink"><defs><circle id="a" cx="31.571" cy="31.571" r="31.571"/><filter x="-21.4%" y="-21.4%" width="142.8%" height="142.8%" filterUnits="objectBoundingBox" id="b"><feOffset in="SourceAlpha" result="shadowOffsetOuter1"/><feGaussianBlur stdDeviation="4.5" in="shadowOffsetOuter1" result="shadowBlurOuter1"/><feComposite in="shadowBlurOuter1" in2="SourceAlpha" operator="out" result="shadowBlurOuter1"/><feColorMatrix values="0 0 0 0 0 0 0 0 0 0 0 0 0 0 0 0 0 0 0.0816349638 0" in="shadowBlurOuter1"/></filter></defs><g transform="translate(8.657 9)" fill="none" fill-rule="evenodd"><mask id="c" fill="#fff"><use xlink:href="#a"/></mask><use fill="#000" filter="url(#b)" xlink:href="#a"/><use fill="#EDD36B" xlink:href="#a"/><circle stroke="#FFF" stroke-width="2" cx="31.571" cy="31.571" r="30.571"/><path d="M39.953 21.529h5.824a3.788 3.788 0 0 1 3.789 3.788v16.851a3.788 3.788 0 0 1-3.789 3.789H17.364a3.788 3.788 0 0 1-3.788-3.789v-16.85a3.788 3.788 0 0 1 3.788-3.79h5.824v-.942c0-4.187 3.393-7.581 7.574-7.581h1.618c4.183 0 7.573 3.394 7.573 7.581v.943zm-1.894 0v-.943A5.683 5.683 0 0 0 32.38 14.9h-1.618a5.684 5.684 0 0 0-5.68 5.687v.943H38.06z" fill="#FFF" mask="url(#c)"/></g></svg>