<?xml version="1.0" encoding="UTF-8"?>
<svg width="80px" height="79px" viewBox="0 0 80 79" version="1.1" xmlns="http://www.w3.org/2000/svg" xmlns:xlink="http://www.w3.org/1999/xlink">
    <!-- Generator: Sketch 48.2 (47327) - http://www.bohemiancoding.com/sketch -->
    <title>icone grand mere</title>
    <desc>Created with Sketch.</desc>
    <defs>
        <linearGradient x1="50%" y1="0%" x2="50%" y2="100%" id="linearGradient-1">
            <stop stop-color="#80A2DF" offset="0%"></stop>
            <stop stop-color="#B39CDE" offset="100%"></stop>
        </linearGradient>
        <path d="M39.1583827,0 C17.5263648,0 0,17.5272195 0,39.1583827 C0,60.7895458 17.5263648,78.3167653 39.1583827,78.3167653 C60.7942197,78.3167653 78.3167653,60.7895458 78.3167653,39.1583827 C78.3167653,17.5272195 60.7942197,0 39.1583827,0 Z" id="path-2"></path>
        <linearGradient x1="50%" y1="0%" x2="50%" y2="93.324219%" id="linearGradient-4">
            <stop stop-color="#FAE9E0" offset="0%"></stop>
            <stop stop-color="#EDD3CE" offset="100%"></stop>
        </linearGradient>
        <path d="M39.1583827,11.809671 C25.7671335,11.809671 14.9174791,22.6598545 14.9174791,35.7437276 C14.9174791,49.4412946 25.7671335,60.2914781 39.1583827,60.2914781 C52.5519961,60.2914781 63.3992862,49.4412946 63.3992862,35.7437276 C63.3992862,22.6598545 52.5519961,11.809671 39.1583827,11.809671 Z" id="path-5"></path>
        <filter x="-14.4%" y="-10.3%" width="128.9%" height="128.9%" filterUnits="objectBoundingBox" id="filter-6">
            <feOffset dx="0" dy="2" in="SourceAlpha" result="shadowOffsetOuter1"></feOffset>
            <feGaussianBlur stdDeviation="2" in="shadowOffsetOuter1" result="shadowBlurOuter1"></feGaussianBlur>
            <feColorMatrix values="0 0 0 0 0   0 0 0 0 0   0 0 0 0 0  0 0 0 0.605865036 0" type="matrix" in="shadowBlurOuter1"></feColorMatrix>
        </filter>
        <path d="M12.922349,2.21489493e-14 C13.0078921,0.100412681 13.0527939,0.204344791 13.0527939,0.310780815 C13.0527942,1.1691603 10.13237,1.86468489 6.52639693,1.86468489 C2.9210608,1.86468489 1.9187948e-12,1.1691603 1.9187948e-12,0.310780815 C1.9187948e-12,0.204344791 0.0449116713,0.100412681 0.13047067,2.16909823e-14 L12.922349,2.22044605e-14 Z" id="path-7"></path>
        <path d="M13.0348561,0.0376407583 C13.0467444,0.075983441 13.0527939,0.114713689 13.0527939,0.153781283 C13.0527942,1.01216077 10.13237,1.70768536 6.52639693,1.70768536 C2.9210608,1.70768536 1.9187948e-12,1.01216077 1.9187948e-12,0.153781283 C1.9187948e-12,0.114713689 0.00605083429,0.075983441 0.0179416224,0.0376407583 L13.0348561,0.0376407583 Z" id="path-9"></path>
        <path d="M29.3165241,0 L44.0277481,0 C44.0955725,0.404274217 44.1308757,0.819575986 44.1308757,1.24312326 C44.1308757,5.36247137 40.7914842,8.70186281 36.6721361,8.70186281 C32.552788,8.70186281 29.2133966,5.36247137 29.2133966,1.24312326 C29.2133966,0.819575986 29.2486998,0.404274217 29.3165241,-2.22044605e-16 Z M5.69718223,0 L20.4084062,0 C20.4762306,0.404274217 20.5115338,0.819575986 20.5115338,1.24312326 C20.5115338,5.36247137 17.1721423,8.70186281 13.0527942,8.70186281 C8.93344611,8.70186281 5.59405466,5.36247137 5.59405466,1.24312326 C5.59405466,0.819575986 5.62935787,0.404274217 5.69718223,-2.22044605e-16 Z" id="path-11"></path>
    </defs>
    <g id="onboarding-1-with-modal-error" stroke="none" stroke-width="1" fill="none" fill-rule="evenodd" transform="translate(-120.000000, -177.000000)">
        <g id="icone-grand-mere" transform="translate(120.812988, 177.243652)">
            <mask id="mask-3" fill="white">
                <use xlink:href="#path-2"></use>
            </mask>
            <use id="Background" fill="url(#linearGradient-1)" xlink:href="#path-2"></use>
            <path d="M61.5218869,80.1814502 L16.7948784,80.1814502 C16.7864297,79.9753179 16.782164,79.7681014 16.782164,79.5598886 C16.782164,71.3211924 23.4609469,64.6424095 31.6996431,64.6424095 L46.6171222,64.6424095 C54.8558184,64.6424095 61.5346013,71.3211924 61.5346013,79.5598886 C61.5346013,79.7681014 61.5303356,79.9753179 61.5218867,80.1814554 Z" id="Body" fill="#9AEADB" mask="url(#mask-3)"></path>
            <path d="M34.8074512,53.1453585 C34.8074512,50.5697502 36.8998097,48.4818071 39.4691635,48.4818071 L39.4691635,48.4818071 C42.043756,48.4818071 44.1308757,50.5668138 44.1308757,53.1453585 L44.1308757,66.1944743 C44.1308757,68.7700827 42.0385173,70.8580258 39.4691635,70.8580258 L39.4691635,70.8580258 C36.8945709,70.8580258 34.8074512,68.7730191 34.8074512,66.1944743 L34.8074512,53.1453585 Z" id="cou" fill="#EDD3CE"></path>
            <path d="M18.0252873,33.564328 C20.6336273,33.564328 22.9977803,35.9291116 22.9977803,38.536821 C22.9977803,41.7660921 20.6336273,44.1308757 18.0252873,44.1308757 C14.7959009,44.1308757 12.4312326,41.7660921 12.4312326,38.536821 C12.4312326,35.9291116 14.7959009,33.564328 18.0252873,33.564328 Z M60.9130397,33.564328 C63.5213797,33.564328 65.8855327,35.9291116 65.8855327,38.536821 C65.8855327,41.7660921 63.5213797,44.1308757 60.9130397,44.1308757 C57.6836533,44.1308757 55.318985,41.7660921 55.318985,38.536821 C55.318985,35.9291116 57.6836533,33.564328 60.9130397,33.564328 Z" id="oreilles" fill="#EED4CF"></path>
            <g id="tete">
                <use fill="black" fill-opacity="1" filter="url(#filter-6)" xlink:href="#path-5"></use>
                <use fill="url(#linearGradient-4)" fill-rule="evenodd" xlink:href="#path-5"></use>
            </g>
            <path d="M49.3923069,47.7587891 C50.7135415,47.7587891 51.7846137,46.6877168 51.7846137,45.3664822 C51.7846137,44.4856591 50.9871781,42.4123265 49.3923069,39.1464844 C47.7974356,42.4123265 47,44.4856591 47,45.3664822 C47,46.6877168 48.0710723,47.7587891 49.3923069,47.7587891 Z" id="Oval-6" fill="#8DD0DE"></path>
            <path d="M63.2463414,33.8374287 C54.8428671,32.5246857 47.6225781,27.601066 43.1942404,20.7423254 C36.1056256,28.6157702 26.1251407,33.8438784 14.9921526,34.6872832 C15.9691823,21.7652259 26.4125256,11.809671 39.1583827,11.809671 C51.6255729,11.809671 61.8865107,21.3312993 63.2463414,33.8374287 Z" id="cheveux" fill="#FFFFFF"></path>
            <path d="M32.1345776,19.2684105 C31.0709747,17.8419293 30.4565198,16.1170177 30.4565198,14.2959175 C30.4565198,9.00759103 34.4916178,4.97249304 39.7799443,4.97249304 C44.4467091,4.97249304 48.4818071,9.00759103 48.4818071,14.2959175 C48.4818071,16.1170177 47.8673522,17.8419293 46.8406843,19.2684105 L32.1345776,19.2684105 Z" id="Combined-Shape" fill="#FFFFFF"></path>
            <g id="bouche" transform="translate(32.942766, 52.832739)">
                <mask id="mask-8" fill="white">
                    <use xlink:href="#path-7"></use>
                </mask>
                <use id="Mask" fill="#DCAFAF" xlink:href="#path-7"></use>
            </g>
            <g id="bouche" transform="translate(39.942766, 52.454300) scale(1, -1) translate(-39.942766, -52.454300) translate(32.942766, 51.454300)">
                <mask id="mask-10" fill="white">
                    <use xlink:href="#path-9"></use>
                </mask>
                <use id="Mask" fill="#DCAFAF" xlink:href="#path-9"></use>
            </g>
            <path d="M41.644629,41.0230675 C41.6446292,42.3964747 40.5320866,43.5093141 39.1583826,43.5093141 C37.7849212,43.5093141 36.6721361,42.3964747 36.6721361,41.0230675 L41.644629,41.0230675 Z" id="nez" fill="#DBC5BF"></path>
            <path d="M27.6594925,36.6721361 C26.801295,36.6721361 26.1055884,35.9764296 26.1055884,35.1182321 C26.1055884,34.2600345 26.801295,33.564328 27.6594925,33.564328 C28.51769,33.564328 29.2133966,34.2600345 29.2133966,35.1182321 C29.2133966,35.9764296 28.51769,36.6721361 27.6594925,36.6721361 Z M51.2788344,36.6721361 C50.4206369,36.6721361 49.7249304,35.9764296 49.7249304,35.1182321 C49.7249304,34.2600345 50.4206369,33.564328 51.2788344,33.564328 C52.137032,33.564328 52.8327385,34.2600345 52.8327385,35.1182321 C52.8327385,35.9764296 52.137032,36.6721361 51.2788344,36.6721361 Z" id="yeux" fill="#3F4A49"></path>
            <g id="lunettes-vieux" transform="translate(14.295917, 32.942766)">
                <polygon id="Rectangle-31" fill="#7D6454" points="20.5115338 1.13686838e-13 29.2133966 1.13686838e-13 29.2133966 1.24312326 20.5115338 1.24312326"></polygon>
                <path d="M4.35093141,1.13686838e-13 L5.59405466,1.13686838e-13 L5.59405466,1.24312326 L4.35093141,1.24312326 L0.621561629,1.24312326 C0.27828262,1.24312326 5.68299473e-14,0.964840638 5.67879077e-14,0.621561629 C5.67458682e-14,0.27828262 0.27828262,1.13749897e-13 0.621561629,1.13686838e-13 L4.35093141,1.14686038e-13 Z" id="Combined-Shape" fill="#7D6454"></path>
                <path d="M48.4818071,1.13686838e-13 L49.7249304,1.13686838e-13 L49.7249304,1.24312326 L48.4818071,1.24312326 L44.7524373,1.24312326 C44.4091583,1.24312326 44.1308757,0.964840638 44.1308757,0.621561629 C44.1308757,0.27828262 44.4091583,1.13749897e-13 44.7524373,1.13686838e-13 L48.4818071,1.14686038e-13 Z" id="Combined-Shape" fill="#7D6454" transform="translate(46.927903, 0.621562) scale(-1, 1) translate(-46.927903, -0.621562) "></path>
                <g id="Combined-Shape">
                    <use fill-opacity="0.343863225" fill="#94D3E4" fill-rule="evenodd" xlink:href="#path-11"></use>
                    <path stroke="#7D6454" stroke-width="1" d="M28.8934205,-0.5 L44.4508517,-0.5 L44.5208567,-0.0827279471 C44.5938971,0.352636908 44.6308757,0.79564691 44.6308757,1.24312326 C44.6308757,5.63861374 41.0676266,9.20186281 36.6721361,9.20186281 C32.2766457,9.20186281 28.7133966,5.63861374 28.7133966,1.24312326 C28.7133966,0.79564691 28.7503752,0.352636908 28.8234156,-0.0827279471 L28.8934205,-0.5 Z M5.27407862,-0.5 L20.8315098,-0.5 L20.9015148,-0.0827279471 C20.9745552,0.352636908 21.0115338,0.79564691 21.0115338,1.24312326 C21.0115338,5.63861374 17.4482847,9.20186281 13.0527942,9.20186281 C8.65730374,9.20186281 5.09405466,5.63861374 5.09405466,1.24312326 C5.09405466,0.79564691 5.13103325,0.352636908 5.20407364,-0.0827279471 L5.27407862,-0.5 Z"></path>
                </g>
            </g>
            <path d="" id="cheveux" fill="#D8D8D8"></path>
            <path d="M48.0771484,44.9878911 C48.1508863,46.2877771 48.7786126,46.8276244 49.9603271,46.607433" id="Path-5" stroke="#FFFFFF" stroke-width="0.8" opacity="0.280966938" stroke-linecap="round" stroke-linejoin="round"></path>
        </g>
    </g>
</svg>