<?xml version="1.0" encoding="UTF-8"?>
<svg width="23px" height="23px" viewBox="0 0 23 23" version="1.1" xmlns="http://www.w3.org/2000/svg" xmlns:xlink="http://www.w3.org/1999/xlink">
    <!-- Generator: Sketch 48.2 (47327) - http://www.bohemiancoding.com/sketch -->
    <title>icon close</title>
    <desc>Created with Sketch.</desc>
    <defs></defs>
    <g id="onboarding-1-with-modal-install" stroke="none" stroke-width="1" fill="none" fill-rule="evenodd" transform="translate(-273.000000, -153.000000)">
        <g id="modal" transform="translate(15.000000, 147.000000)" fill="#3C3C3B">
            <path d="M269.689453,28.3574219 C263.614321,28.3574219 258.689453,23.4325541 258.689453,17.3574219 C258.689453,11.2822896 263.614321,6.35742188 269.689453,6.35742188 C275.764585,6.35742188 280.689453,11.2822896 280.689453,17.3574219 C280.689453,23.4325541 275.764585,28.3574219 269.689453,28.3574219 Z M269.689453,27.3574219 C275.212301,27.3574219 279.689453,22.8802694 279.689453,17.3574219 C279.689453,11.8345744 275.212301,7.35742188 269.689453,7.35742188 C264.166606,7.35742188 259.689453,11.8345744 259.689453,17.3574219 C259.689453,22.8802694 264.166606,27.3574219 269.689453,27.3574219 Z M269.689453,16.6503151 L273.224987,13.1147812 L273.932094,13.821888 L270.39656,17.3574219 L273.932094,20.8929558 L273.224987,21.6000626 L269.689453,18.0645287 L266.153919,21.6000626 L265.446812,20.8929558 L268.982346,17.3574219 L265.446812,13.821888 L266.153919,13.1147812 L269.689453,16.6503151 Z" id="icon-close"></path>
        </g>
    </g>
</svg>