<?xml version="1.0" encoding="UTF-8"?>
<svg width="29px" height="26px" viewBox="0 0 29 26" version="1.1" xmlns="http://www.w3.org/2000/svg" xmlns:xlink="http://www.w3.org/1999/xlink">
    <!-- Generator: Sketch 49 (51002) - http://www.bohemiancoding.com/sketch -->
    <title>Memories Icon</title>
    <desc>Created with Sketch.</desc>
    <defs></defs>
    <g id="Symbols" stroke="none" stroke-width="1" fill="none" fill-rule="evenodd">
        <g id="Header" transform="translate(-643.000000, -35.000000)" fill="#2A2B43">
            <g id="balance" transform="translate(341.000000, 15.000000)">
                <path d="M305.390188,32.9525488 C305.638729,26.2720898 311.132856,20.9326172 317.874084,20.9326172 C324.773599,20.9326172 330.36676,26.5257787 330.36676,33.425293 C330.36676,40.3248073 324.773599,45.9179688 317.874084,45.9179688 C314.969868,45.9179688 312.215414,44.9225879 310.006581,43.1298626 C309.560154,42.7675349 309.491978,42.1119097 309.854305,41.6654826 C310.216633,41.2190555 310.872258,41.1508794 311.318685,41.5132071 C313.159813,43.0074968 315.452079,43.8358561 317.874084,43.8358561 C323.62368,43.8358561 328.284648,39.1748882 328.284648,33.425293 C328.284648,27.6756977 323.62368,23.0147298 317.874084,23.0147298 C312.201971,23.0147298 307.589343,27.5509206 307.466052,33.1934481 L309.17077,31.7154733 C309.60519,31.3388343 310.262684,31.3856758 310.639323,31.8200967 C311.015962,32.2545176 310.969121,32.9120116 310.5347,33.2886506 L307.114593,36.2538526 C306.701862,36.6116866 306.082749,36.5896609 305.69649,36.203402 L302.563158,33.0700705 C302.1566,32.6635127 302.1566,32.0043523 302.563158,31.5977945 C302.969716,31.1912367 303.628876,31.1912367 304.035434,31.5977945 L305.390188,32.9525488 Z" id="Memories-Icon"></path>
            </g>
        </g>
    </g>
</svg>