<?xml version="1.0" encoding="UTF-8"?>
<svg width="158px" height="201px" viewBox="0 0 158 201" version="1.1" xmlns="http://www.w3.org/2000/svg" xmlns:xlink="http://www.w3.org/1999/xlink">
    <!-- Generator: Sketch 48.2 (47327) - http://www.bohemiancoding.com/sketch -->
    <title>logo intro</title>
    <desc>Created with Sketch.</desc>
    <defs>
        <linearGradient x1="50%" y1="1.45487883%" x2="50%" y2="94.8251159%" id="linearGradient-1">
            <stop stop-color="#FF77A7" offset="0%"></stop>
            <stop stop-color="#FFBF76" offset="100%"></stop>
        </linearGradient>
        <linearGradient x1="50%" y1="3.26450893%" x2="50%" y2="98.7603635%" id="linearGradient-2">
            <stop stop-color="#E4E4E4" offset="0%"></stop>
            <stop stop-color="#F5F5F5" offset="100%"></stop>
        </linearGradient>
        <linearGradient x1="0%" y1="2.76864035%" x2="97.8342273%" y2="89.0794662%" id="linearGradient-3">
            <stop stop-color="#7DB7FF" offset="0%"></stop>
            <stop stop-color="#C089FF" offset="100%"></stop>
        </linearGradient>
        <filter x="0.0%" y="0.0%" width="100.0%" height="100.0%" filterUnits="objectBoundingBox" id="filter-4">
            <feGaussianBlur stdDeviation="0" in="SourceGraphic"></feGaussianBlur>
        </filter>
        <filter x="0.0%" y="0.0%" width="100.0%" height="100.0%" filterUnits="objectBoundingBox" id="filter-5">
            <feGaussianBlur stdDeviation="0" in="SourceGraphic"></feGaussianBlur>
        </filter>
        <linearGradient x1="0%" y1="2.76864035%" x2="95.4724371%" y2="86.9958593%" id="linearGradient-6">
            <stop stop-color="#4DEAD8" offset="0%"></stop>
            <stop stop-color="#5BB7E4" offset="100%"></stop>
        </linearGradient>
        <circle id="path-7" cx="12.0595629" cy="11.9553086" r="11.9553086"></circle>
        <circle id="path-9" cx="6.40485258" cy="6.34948296" r="6.34948296"></circle>
    </defs>
    <g id="onboarding-1" stroke="none" stroke-width="1" fill="none" fill-rule="evenodd" transform="translate(-87.000000, -60.000000)">
        <g id="logo-intro" transform="translate(87.416016, 58.755301)">
            <g id="typo" transform="translate(8.353176, 171.496829)" fill="#3C3C3B">
                <path d="M10.7788111,7.31558922 L6.70221315,7.31558922 L6.70221315,23.9373294 L10.815122,23.9373294 C15.0788608,23.9373294 16.7840769,22.5691529 16.7840769,15.4604929 C16.7840769,8.87065217 15.1891901,7.31558922 10.7788111,7.31558922 M10.9268479,29.4895317 L0.43718461,29.4895317 L0.43718461,1.72712533 L10.8528295,1.72712533 C19.674984,1.72712533 23.3451791,5.90975653 23.3451791,15.4981492 C23.3451791,25.5300485 19.1568553,29.4895317 10.9268479,29.4895317" id="Fill-25"></path>
                <path d="M40.138137,15.9791727 C40.0641186,12.683555 38.5809575,11.4241632 36.1718683,11.4241632 C33.3912906,11.4241632 32.315929,12.7198165 32.0575629,15.9791727 L40.138137,15.9791727 Z M26.2380413,17.9777424 C26.2380413,10.8342155 29.388711,6.65158432 36.1341608,6.65158432 C41.8810606,6.65158432 45.4018223,9.98067424 45.4018223,17.0893342 C45.4018223,17.9414808 45.3655114,19.0153808 45.2537855,19.7894256 L32.1678922,19.7894256 C32.4653624,23.5299447 34.2823044,24.9371721 38.1354506,24.9371721 C40.2498628,24.9371721 42.2148417,24.5661884 44.1421131,23.8270105 L44.7719677,28.4531485 C42.8810072,29.3052951 40.2861737,29.8966374 37.4329742,29.8966374 C29.6847846,29.8966374 26.2380413,25.8255802 26.2380413,17.9777424 Z" id="Fill-27"></path>
                <path d="M55.4855017,11.3510822 L55.4855017,22.8264705 C55.4855017,24.5670252 56.375119,25.3075978 58.1543535,25.3075978 C58.7478973,25.3075978 59.5271853,25.1960238 59.9335881,25.0481882 L60.2673692,29.2294247 C59.4894778,29.5641468 58.0063168,29.859818 56.4128264,29.859818 C51.9270325,29.859818 49.7399985,27.2685113 49.7399985,23.0119623 L49.7399985,11.3510822 L47.2191834,11.3510822 L47.2191834,7.05687696 L49.9997611,7.05687696 L50.9633968,1.98444292 L55.4855017,1.57719773 L55.4855017,7.05687696 L60.4894244,7.05687696 L60.4894244,11.3510822 L55.4855017,11.3510822 Z" id="Fill-29"></path>
                <path d="M76.9857501,29.4900896 L76.9857501,15.2002465 C76.9857501,12.9060057 75.8363701,11.7219263 73.3895734,11.7219263 C71.7220647,11.7219263 70.2766112,12.4624989 69.5713416,13.4234302 L69.5713416,29.4900896 L63.8272349,29.4900896 L63.8272349,0.691439455 L69.5713416,0.394373618 L69.5713416,5.50167454 L69.4973232,8.46535953 L69.609049,8.53788265 C71.2765578,7.13204995 73.3169516,6.61462542 75.2065155,6.61462542 C79.9506755,6.61462542 82.7312533,9.79587976 82.7312533,15.2002465 L82.7312533,29.4900896 L76.9857501,29.4900896 Z" id="Fill-31"></path>
                <path d="M100.00547,15.9791727 C99.9328486,12.683555 98.4496875,11.4241632 96.0392018,11.4241632 C93.2600206,11.4241632 92.184659,12.7198165 91.9262929,15.9791727 L100.00547,15.9791727 Z M86.1067713,17.9777424 C86.1067713,10.8342155 89.257441,6.65158432 96.0028908,6.65158432 C101.748394,6.65158432 105.269156,9.98067424 105.269156,17.0893342 C105.269156,17.9414808 105.234241,19.0153808 105.122516,19.7894256 L92.0366222,19.7894256 C92.3326958,23.5299447 94.1496379,24.9371721 98.0041806,24.9371721 C100.117196,24.9371721 102.082175,24.5661884 104.010843,23.8270105 L104.640698,28.4531485 C102.749737,29.3052951 100.153507,29.8966374 97.3003076,29.8966374 C89.5535146,29.8966374 86.1067713,25.8255802 86.1067713,17.9777424 Z" id="Fill-33"></path>
                <path d="M108.82944,29.4900896 L108.82944,7.20457307 L113.425564,6.9828197 L113.943692,10.7219442 L114.055418,10.7219442 C115.464561,8.01906344 117.651595,6.68575386 120.208721,6.68575386 C121.210064,6.68575386 122.063371,6.83498412 122.655518,7.02047593 L122.285426,12.6828576 C121.581553,12.4624989 120.729643,12.3146633 119.840026,12.3146633 C116.835996,12.3146633 114.612651,14.4973302 114.612651,18.2364546 L114.612651,29.4900896 L108.82944,29.4900896 Z" id="Fill-35"></path>
                <path d="M124.437266,29.9340147 C122.102195,29.9340147 121.099456,29.0456065 121.099456,26.7137095 C121.099456,24.6760889 122.102195,23.5296658 124.437266,23.5296658 C126.772337,23.5296658 127.735973,24.6760889 127.735973,26.7137095 C127.735973,28.7122792 126.772337,29.9340147 124.437266,29.9340147" id="Fill-37"></path>
            </g>
            <g id="beta" transform="translate(121.457361, 154.000000)">
                <text id="BETA" font-family=".AppleSystemUIFont" font-size="9" font-weight="normal" fill="#5E70E4">
                    <tspan x="6.39355469" y="11.6066895">BETA</tspan>
                </text>
                <rect id="Rectangle" stroke="#5E70E4" x="1.18676758" y="0.547215232" width="34.2298944" height="15.1189484" rx="1"></rect>
            </g>
            <g id="boules-couleur-degrad" transform="translate(3.583984, 9.244699)">
                <circle id="Oval-15" fill="url(#linearGradient-1)" cx="5.82858281" cy="59.851593" r="4.85159297"></circle>
                <circle id="Oval-15" fill="url(#linearGradient-1)" cx="103.233398" cy="63.2564086" r="3.01464844"></circle>
                <circle id="Oval-15" fill="url(#linearGradient-2)" cx="36.2748414" cy="10.5936106" r="9.74554454"></circle>
                <circle id="Oval-15" fill="url(#linearGradient-3)" filter="url(#filter-4)" cx="91.7939453" cy="131.335717" r="3.60839844"></circle>
                <circle id="Oval-15" fill="url(#linearGradient-3)" filter="url(#filter-5)" cx="73.9376103" cy="7.4793819" r="2.46473346"></circle>
                <circle id="Oval-15" fill="url(#linearGradient-6)" cx="136.778193" cy="59.4591118" r="3.87024465"></circle>
                <circle id="Oval-15" fill="url(#linearGradient-6)" cx="42.7540229" cy="94.4349419" r="2.84607473"></circle>
            </g>
            <path d="M72.4875588,58.7320634 C68.5707331,58.7320634 65.3842566,61.914209 65.3842566,65.824864 C65.3842566,69.736366 68.5707331,72.9180881 72.4875588,72.9180881 C76.4039603,72.9180881 79.5900128,69.736366 79.5900128,65.824864 C79.5900128,61.914209 76.4039603,58.7320634 72.4875588,58.7320634 M72.4875588,74.0180525 C67.9638054,74.0180525 64.2832193,70.3424688 64.2832193,65.824864 C64.2832193,61.3076826 67.9638054,57.6325226 72.4875588,57.6325226 C77.010888,57.6325226 80.6914742,61.3076826 80.6914742,65.824864 C80.6914742,70.3424688 77.010888,74.0180525 72.4875588,74.0180525 Z M49.4847861,64.588177 C50.7279064,64.588177 51.7356354,65.5945364 51.7356354,66.8359671 C51.7356354,68.0773978 50.7279064,69.0833337 49.4847861,69.0833337 C48.2416658,69.0833337 47.2339367,68.0773978 47.2339367,66.8359671 C47.2339367,65.5945364 48.2416658,64.588177 49.4847861,64.588177 Z M97.934032,66.8357977 C97.934032,68.077652 96.926303,69.0835878 95.6831827,69.0835878 C95.6590074,69.0835878 95.6365286,69.0772345 95.6119291,69.0763874 C95.1716839,69.0624102 94.7619758,68.9272971 94.4201284,68.6964613 C93.824228,68.2919692 93.4323333,67.6096271 93.4323333,66.8357977 C93.4323333,65.594367 94.4400624,64.5880076 95.6831827,64.5880076 C96.926303,64.5880076 97.934032,65.594367 97.934032,66.8357977 Z M74.6471357,81.9339415 C74.6471357,83.1757958 73.6394067,84.1821552 72.3962864,84.1821552 C71.1531661,84.1821552 70.145437,83.1757958 70.145437,81.9339415 C70.145437,80.6929344 71.1531661,79.686575 72.3962864,79.686575 C73.6394067,79.686575 74.6471357,80.6929344 74.6471357,81.9339415 Z M74.6471357,100.628931 C74.6471357,101.870785 73.6394067,102.876721 72.3962864,102.876721 C71.1531661,102.876721 70.145437,101.870785 70.145437,100.628931 C70.145437,99.3875 71.1531661,98.3811406 72.3962864,98.3811406 C73.6394067,98.3811406 74.6471357,99.3875 74.6471357,100.628931 Z M72.3964136,86.9309225 C72.5749716,86.9309225 72.7518332,86.9211808 72.9257258,86.9025445 L72.9265741,95.6607513 C72.7522573,95.6425385 72.5753958,95.6319497 72.3964136,95.6319497 C72.2025869,95.6319497 72.0125774,95.645927 71.8246885,95.6671046 L71.8246885,86.8957677 C72.0125774,86.9173688 72.2025869,86.9309225 72.3964136,86.9309225 Z M53.2611404,70.1038397 L68.3724107,78.9764055 C68.1548328,79.2711976 67.966944,79.588438 67.8172266,79.9264325 L52.4111871,70.8802104 C52.7237697,70.6544572 53.008784,70.3943963 53.2611404,70.1038397 Z M51.7359323,71.2921993 L69.7177035,96.415182 C69.4063933,96.6138278 69.1158653,96.8416988 68.8558746,97.1017597 L50.664584,71.6865262 C51.0399376,71.5954625 51.3987502,71.4628907 51.7359323,71.2921993 Z M95.6833099,61.839198 C95.3694549,61.839198 95.0632342,61.8713879 94.7654961,61.9268732 C92.9391993,51.2266808 83.5010703,43.2232436 72.5776437,43.2232436 C61.6554894,43.2232436 52.2169363,51.2258337 50.3902153,61.925179 C50.0962944,61.8709643 49.794315,61.839198 49.4847012,61.839198 C49.4181131,61.839198 49.3536456,61.8468219 49.2874815,61.8489396 C51.158736,50.5689047 61.0778266,42.1232792 72.5776437,42.1232792 C84.0774607,42.1232792 93.9961272,50.5689047 95.8682299,61.8480925 C95.805883,61.8463983 95.7452327,61.839198 95.6833099,61.839198 Z M91.768817,69.9338259 C92.0037841,70.2294652 92.2722574,70.4988442 92.5729644,70.7377275 L76.9637674,79.9029677 C76.8123535,79.5653968 76.6236164,79.2490035 76.404342,78.9559056 L91.768817,69.9338259 Z M93.1331532,71.121762 C93.4567631,71.3132075 93.7969141,71.4720395 94.1548785,71.5855514 L75.9097235,97.0761771 C75.6476122,96.818234 75.356236,96.5920573 75.0432292,96.3963763 L93.1331532,71.121762 Z" id="Combined-Shape" fill="#3C3C3B"></path>
            <g id="immeuble" transform="translate(27.087122, 62.875680) rotate(14.000000) translate(-27.087122, -62.875680) translate(19.587122, 52.875680)" stroke="#3C3C3B">
                <rect id="Rectangle-40" x="0.489802257" y="0.27239804" width="13.7230261" height="19.2931516" rx="1"></rect>
                <rect id="Rectangle-40" x="3.32556628" y="3.58165813" width="2.37444851" height="2.39247369" rx="1"></rect>
                <rect id="Rectangle-40" x="9.00261581" y="3.58165813" width="2.37444851" height="2.39247369" rx="1"></rect>
                <rect id="Rectangle-40" x="3.32556628" y="8.45395776" width="2.37444851" height="2.39247369" rx="1"></rect>
                <rect id="Rectangle-40" x="9.00261581" y="8.45395776" width="2.37444851" height="2.39247369" rx="1"></rect>
                <rect id="Rectangle-40" x="6.16409105" y="13.7858678" width="2.37444851" height="5.27968182" rx="1"></rect>
            </g>
            <g id="Geoloc" transform="translate(102.410748, 125.458339) rotate(-5.000000) translate(-102.410748, -125.458339) translate(95.410748, 113.458339)" stroke="#3C3C3B">
                <path d="M6.98453081,23.2817694 C11.6408847,14.9885769 13.9690616,9.55616405 13.9690616,6.98453081 C13.9690616,3.12708096 10.8419807,2.84217094e-13 6.98453081,2.84217094e-13 C3.12708096,2.84217094e-13 0,3.12708096 0,6.98453081 C0,9.55616405 2.32817694,14.9885769 6.98453081,23.2817694 Z" id="Oval-5"></path>
                <circle id="Oval-5" cx="6.98453081" cy="6.98453081" r="3.74321514"></circle>
            </g>
            <g id="Geoloc" transform="translate(90.735656, 11.060069) rotate(32.000000) translate(-90.735656, -11.060069) translate(86.235656, 3.560069)" stroke="#3C3C3B">
                <path d="M4.30423673,14.3474558 C7.17372789,9.23675262 8.60847347,5.88901294 8.60847347,4.30423673 C8.60847347,1.92707243 6.68140104,2.84217094e-13 4.30423673,2.84217094e-13 C1.92707243,2.84217094e-13 0,1.92707243 0,4.30423673 C0,5.88901294 1.43474558,9.23675262 4.30423673,14.3474558 Z" id="Oval-5"></path>
                <circle id="Oval-5" cx="4.30423673" cy="4.30423673" r="2.30676685"></circle>
            </g>
            <g id="Geoloc" transform="translate(38.425167, 40.215319) rotate(-25.000000) translate(-38.425167, -40.215319) translate(34.425167, 34.215319)" stroke="#3C3C3B">
                <path d="M3.58406884,11.9468961 C5.97344806,7.69129564 7.16813767,4.90368654 7.16813767,3.58406884 C7.16813767,1.60464228 5.5634954,2.84217094e-13 3.58406884,2.84217094e-13 C1.60464228,2.84217094e-13 0,1.60464228 0,3.58406884 C0,4.90368654 1.19468961,7.69129564 3.58406884,11.9468961 Z" id="Oval-5"></path>
                <circle id="Oval-5" cx="3.58406884" cy="3.58406884" r="1.92080773"></circle>
            </g>
            <g id="bag" transform="translate(48.748883, 125.365736) rotate(9.000000) translate(-48.748883, -125.365736) translate(37.748883, 111.865736)" stroke="#3C3C3B">
                <path d="M9.26677649,6.21160974 L8.05146154,3.51090986" id="Line-5" stroke-linecap="square"></path>
                <path d="M14.1280363,6.21160974 L12.9127213,3.51090986" id="Line-5" stroke-linecap="square" transform="translate(13.520379, 4.861260) scale(-1, 1) translate(-13.520379, -4.861260) "></path>
                <path d="M10.6666831,6.57657475 C5.98139316,6.57657475 2.06367498,10.1378615 1.61810765,14.8019168 L1.10109073,20.2138833 C1.08448209,20.3877372 1.07616363,20.5622835 1.07616363,20.7369289 C1.07616363,23.774495 3.53859751,26.2369289 6.57616363,26.2369289 L15.2028865,26.2369289 C15.4352365,26.2369289 15.667353,26.2222053 15.8978407,26.1928467 C18.9110609,25.809034 21.0426169,23.0551948 20.6588042,20.0419747 L19.9894689,14.7871846 C19.3916424,10.0937935 15.3979955,6.57657475 10.6666831,6.57657475 Z" id="Rectangle-28"></path>
                <path d="M8.80313226,0.5 C8.04794384,0.5 7.33322528,0.841370103 6.85859451,1.42876706 L5.18139447,3.50444833 C4.97164467,3.76403199 4.85722893,4.08767915 4.85722893,4.42141355 C4.85722893,5.22719144 5.51044098,5.88040349 6.31621887,5.88040349 L15.5903663,5.88040349 C15.9341198,5.88040349 16.2663183,5.75630501 16.5258779,5.53092699 C17.1209064,5.01425822 17.1844295,4.11304952 16.6677607,3.51802101 L14.7947157,1.36090365 C14.3198867,0.814060519 13.6312522,0.5 12.9070285,0.5 L8.80313226,0.5 Z" id="Rectangle-28" transform="translate(10.937248, 3.190202) rotate(-180.000000) translate(-10.937248, -3.190202) "></path>
                <path d="M10.7859202,6.21329768 L10.7859202,3.20539318" id="Line-6" stroke-linecap="square"></path>
                <path d="M10.931758,20.7758091 L10.6084842,20.7502875 L10.6510202,20.1632903 C10.0385015,20.1207543 9.45150437,19.9506102 9.06017295,19.7124085 L9.12823059,19.1679474 C9.57060523,19.4316707 10.1065591,19.6273364 10.6935562,19.6698725 L10.9062364,16.9560742 C9.98745826,16.6328004 9.06017295,16.2754978 9.06017295,15.2120972 C9.06017295,14.1742183 9.83432858,13.5872211 11.1784669,13.5702067 L11.2210029,13.0087312 L11.5697983,13.0342528 L11.5272623,13.5787139 C12.0717234,13.62125 12.5396197,13.7573652 12.803343,13.8934805 L12.7522998,14.3954056 C12.3609684,14.2422759 11.9441153,14.1401894 11.4847263,14.1061606 L11.2890606,16.4711635 C12.1993315,16.7859301 13.1266168,17.1857687 13.1266168,18.3597629 C13.1266168,19.6018148 12.4375332,20.1547831 10.9828012,20.1717975 L10.931758,20.7758091 Z M12.6842421,18.4278206 C12.6757349,17.6621722 12.0036658,17.3474056 11.2380173,17.075175 L11.0253372,19.6783797 C12.139781,19.6698725 12.6842421,19.2615266 12.6842421,18.4278206 Z M9.55359082,15.1865756 C9.55359082,15.8501376 10.2086456,16.1053537 10.9572796,16.3605699 L11.1359309,14.0891462 C10.0385015,14.0976534 9.55359082,14.5570425 9.55359082,15.1865756 Z" id="$" stroke-width="0.4" fill="#5C74E6"></path>
            </g>
            <g id="store" transform="translate(55.048712, 14.104617) rotate(-18.000000) translate(-55.048712, -14.104617) translate(44.048712, 3.604617)" stroke="#3C3C3B">
                <path d="M0.00296006808,6.61471076 L0,6.61471076 L0.0035118501,6.60456201 C0.0268712058,6.19261628 0.165704921,5.81144008 0.388269664,5.49266574 L1.82318011,1.34597523 C2.10195291,0.540360821 2.86073629,7.26202612e-15 3.71322022,7.10542736e-15 L18.031691,6.88338275e-15 C18.884175,6.72678399e-15 19.6429583,0.540360821 19.9217311,1.34597523 L21.3566416,5.49266574 C21.5792063,5.81144008 21.71804,6.19261628 21.7413994,6.604562 L21.7449112,6.61471076 L21.7419512,6.61471076 C21.7439164,6.65247861 21.7449112,6.69050229 21.7449112,6.7287575 C21.7449112,7.9254967 20.7713584,8.89564551 19.5704201,8.89564551 C18.3694818,8.89564551 17.395929,7.9254967 17.395929,6.7287575 C17.395929,6.69050229 17.3969238,6.65247861 17.3988891,6.61471076 L17.3929689,6.61471076 C17.3949342,6.65247861 17.395929,6.69050229 17.395929,6.7287575 C17.395929,7.9254967 16.4223762,8.89564551 15.2214379,8.89564551 C14.0204996,8.89564551 13.0469467,7.9254967 13.0469467,6.7287575 C13.0469467,6.69050229 13.0479416,6.65247861 13.0499068,6.61471076 L13.0439867,6.61471076 C13.0459519,6.65247861 13.0469467,6.69050229 13.0469467,6.7287575 C13.0469467,7.9254967 12.0733939,8.89564551 10.8724556,8.89564551 C9.67151734,8.89564551 8.6979645,7.9254967 8.6979645,6.7287575 C8.6979645,6.69050229 8.69895931,6.65247861 8.70092457,6.61471076 L8.69500443,6.61471076 C8.69696969,6.65247861 8.6979645,6.69050229 8.6979645,6.7287575 C8.6979645,7.9254967 7.72441166,8.89564551 6.52347337,8.89564551 C5.32253509,8.89564551 4.34898225,7.9254967 4.34898225,6.7287575 C4.34898225,6.69050229 4.34997706,6.65247861 4.35194232,6.61471076 L4.34602218,6.61471076 C4.34798744,6.65247861 4.34898225,6.69050229 4.34898225,6.7287575 C4.34898225,7.9254967 3.37542941,8.89564551 2.17449112,8.89564551 C0.973552838,8.89564551 0,7.9254967 0,6.7287575 C0,6.69050229 0.000994813704,6.65247861 0.00296006808,6.61471076 Z" id="Combined-Shape"></path>
                <path d="M21.0036075,9.6369493 L21.0036075,18.2623037 C21.0036075,19.3668732 20.108177,20.2623037 19.0036075,20.2623037 L3.23550632,20.2623037 C2.13093682,20.2623037 1.23550632,19.3668732 1.23550632,18.2623037 L1.23550632,9.6369493" id="Rectangle-34"></path>
                <rect id="Rectangle-38" x="4.94782276" y="11.8666582" width="3.94202528" height="7.89564551" rx="1.97101264"></rect>
                <rect id="Rectangle-38" x="12.1137594" y="11.8666582" width="5.67173413" height="4.18912655" rx="2"></rect>
            </g>
            <g id="store" transform="translate(75.605450, 121.033896) rotate(37.000000) translate(-75.605450, -121.033896) translate(68.105450, 114.033896)" stroke="#3C3C3B">
                <path d="M0.00199081397,4.44876882 L0,4.44876882 L0.00236191873,4.4419432 C0.0180724126,4.1648863 0.111445974,3.90852364 0.26113341,3.69412979 L1.07368296,1.34597523 C1.35245576,0.540360821 2.11123913,6.81793691e-15 2.96372307,6.66133815e-15 L11.6609652,7.10542736e-15 C12.5134492,6.9488286e-15 13.2722325,0.540360821 13.5510053,1.34597523 L14.3635549,3.69412979 C14.5132423,3.90852364 14.6066159,4.1648863 14.6223264,4.4419432 L14.6246883,4.44876882 L14.6226975,4.44876882 C14.6240192,4.47416984 14.6246883,4.49974292 14.6246883,4.52547173 C14.6246883,5.33034684 13.9699187,5.98282703 13.1622195,5.98282703 C12.3545202,5.98282703 11.6997506,5.33034684 11.6997506,4.52547173 C11.6997506,4.49974292 11.7004197,4.47416984 11.7017415,4.44876882 L11.6977598,4.44876882 C11.6990816,4.47416984 11.6997506,4.49974292 11.6997506,4.52547173 C11.6997506,5.33034684 11.044981,5.98282703 10.2372818,5.98282703 C9.42958258,5.98282703 8.77481298,5.33034684 8.77481298,4.52547173 C8.77481298,4.49974292 8.77548205,4.47416984 8.77680379,4.44876882 L8.77282217,4.44876882 C8.77414391,4.47416984 8.77481298,4.49974292 8.77481298,4.52547173 C8.77481298,5.33034684 8.12004338,5.98282703 7.31234415,5.98282703 C6.50464492,5.98282703 5.84987532,5.33034684 5.84987532,4.52547173 C5.84987532,4.49974292 5.85054439,4.47416984 5.85186613,4.44876882 L5.84788451,4.44876882 C5.84920625,4.47416984 5.84987532,4.49974292 5.84987532,4.52547173 C5.84987532,5.33034684 5.19510572,5.98282703 4.38740649,5.98282703 C3.57970726,5.98282703 2.92493766,5.33034684 2.92493766,4.52547173 C2.92493766,4.49974292 2.92560673,4.47416984 2.92692847,4.44876882 L2.92294685,4.44876882 C2.92426859,4.47416984 2.92493766,4.49974292 2.92493766,4.52547173 C2.92493766,5.33034684 2.27016806,5.98282703 1.46246883,5.98282703 C0.654769598,5.98282703 0,5.33034684 0,4.52547173 C0,4.49974292 0.000669068739,4.47416984 0.00199081397,4.44876882 Z" id="Combined-Shape"></path>
                <path d="M14.1261194,6.48139595 L14.1261194,11.6275505 C14.1261194,12.73212 13.2306889,13.6275505 12.1261194,13.6275505 L2.8309482,13.6275505 C1.7263787,13.6275505 0.830948199,12.73212 0.830948199,11.6275505 L0.830948199,6.48139595" id="Rectangle-34"></path>
                <rect id="Rectangle-38" x="3.49141352" y="8.14472343" width="2.3237928" height="4.98282703" rx="1.1618964"></rect>
                <rect id="Rectangle-38" x="8.31091307" y="8.14472343" width="3.48712027" height="2.48998244" rx="1.24499122"></rect>
            </g>
            <g id="icon-perso" transform="translate(125.745325, 81.897380) rotate(-13.000000) translate(-125.745325, -81.897380) translate(113.245325, 69.897380)">
                <mask id="mask-8" fill="white">
                    <use xlink:href="#path-7"></use>
                </mask>
                <use id="Oval-3" stroke="#3C3C3B" xlink:href="#path-7"></use>
                <circle id="Oval-4" stroke="#3C3C3B" mask="url(#mask-8)" cx="12.1938922" cy="9.67171034" r="4.29853793"></circle>
                <rect id="Rectangle-6" stroke="#3C3C3B" mask="url(#mask-8)" x="4.63413361" y="16.8881759" width="15.1195172" height="8.67171034" rx="4.33585517"></rect>
            </g>
            <g id="icon-perso" transform="translate(12.753197, 99.923282) rotate(20.000000) translate(-12.753197, -99.923282) translate(6.253197, 93.423282)">
                <mask id="mask-10" fill="white">
                    <use xlink:href="#path-9"></use>
                </mask>
                <use id="Oval-3" stroke="#3C3C3B" xlink:href="#path-9"></use>
                <circle id="Oval-4" stroke="#3C3C3B" mask="url(#mask-10)" cx="6.47619509" cy="5.13666037" r="2.28296017"></circle>
                <rect id="Rectangle-6" stroke="#3C3C3B" mask="url(#mask-10)" x="2.69564478" y="9.20378563" width="7.56110062" height="4.13666037" rx="2.06833019"></rect>
            </g>
            <g id="caddie" transform="translate(120.959979, 34.210022) rotate(-316.000000) translate(-120.959979, -34.210022) translate(107.959979, 23.210022)" stroke="#3C3C3B">
                <circle id="Oval-16" cx="5.3436316" cy="18.818023" r="2.47457907"></circle>
                <path d="M3.27680833,1.87308304 C3.172875,1.87308304 3.06904282,1.87956431 2.96591626,1.89248913 C1.59592208,2.06419008 0.624513479,3.31398092 0.796214429,4.68397511 L1.34386316,9.0536398 C1.50061482,10.3043542 2.56395809,11.2427477 3.82445707,11.2427477 L15.7365989,11.2427477 C16.9970978,11.2427477 18.0604411,10.3043542 18.2171928,9.0536398 L18.7648415,4.68397511 C18.7777663,4.58084855 18.7842476,4.47701637 18.7842476,4.37308304 C18.7842476,2.99237116 17.6649595,1.87308304 16.2842476,1.87308304 L3.27680833,1.87308304 Z" id="Rectangle-27"></path>
                <circle id="Oval-16" cx="16.8916673" cy="18.818023" r="2.47457907"></circle>
                <path d="M3.10472672,13.9047777 L15.2132862,13.9047777 C18.2341959,13.9047777 20.7840079,11.6588361 21.1653013,8.66208605 L21.9196965,2.73296676 C22.1184613,1.1707886 23.4476547,2.89280992e-16 25.0224271,0" id="Line-4" stroke-linecap="square"></path>
            </g>
            <g id="caddie" transform="translate(40.586107, 89.592149) rotate(-329.000000) translate(-40.586107, -89.592149) translate(32.586107, 82.592149)" stroke="#3C3C3B">
                <circle id="Oval-16" cx="3.33842976" cy="11.7565455" r="1.54599139"></circle>
                <path d="M3.18793536,1.35783258 C3.08895117,1.35783258 2.99006332,1.36400522 2.8918475,1.37631458 C1.58709037,1.53983939 0.661938781,2.73011708 0.825463591,4.03487421 L0.902201775,4.64716474 C1.05895343,5.89787917 2.1222967,6.83627267 3.38279568,6.83627267 L8.83795905,6.83627267 C10.098458,6.83627267 11.1618013,5.89787917 11.318553,4.64716474 L11.3952911,4.03487421 C11.4076005,3.93665839 11.4137731,3.83777053 11.4137731,3.73878635 C11.4137731,2.42382189 10.3477838,1.35783258 9.03281938,1.35783258 L3.18793536,1.35783258 Z" id="Rectangle-27"></path>
                <circle id="Oval-16" cx="10.5530562" cy="11.7565455" r="1.54599139"></circle>
                <path d="M1.93967564,8.68699921 L8.42774564,8.68699921 C10.9305288,8.68699921 13.0430138,6.8262668 13.3589103,4.34349961 L13.6943137,1.7074189 C13.8184918,0.731449284 14.6489044,1.05455161e-15 15.6327422,0" id="Line-4" stroke-linecap="square"></path>
            </g>
            <g id="déco" transform="translate(0.000000, 4.000000)">
                <path d="M80.3736572,21.2251678 C68.1234131,23.7437225 83.836792,33.5882049 69.7943115,31.6013885" id="Path-2" stroke="#3C3C3B"></path>
                <path d="M133.949213,99.3901632 C121.47305,101.955165 137.476215,111.981199 123.174763,109.957742" id="Path-2" stroke="#52DADC" transform="translate(128.561988, 104.807835) rotate(-63.000000) translate(-128.561988, -104.807835) "></path>
                <path d="M17.8037141,67.049598 C11.3018929,69.5226653 18.3423336,84.5901787 4.29985313,82.6033623" id="Path-2" stroke="#3C3C3B" transform="translate(11.051784, 74.916457) rotate(57.000000) translate(-11.051784, -74.916457) "></path>
                <circle id="Oval-2" stroke="#3C3C3B" cx="35.6499023" cy="17.7633758" r="1.46179199"></circle>
                <circle id="Oval-2" stroke="#CBCBCB" cx="105.270789" cy="49.7411724" r="2.19119929"></circle>
                <circle id="Oval-2" stroke="#3C3C3B" cx="88.9767274" cy="131.304636" r="1.46179199"></circle>
                <circle id="Oval-2" stroke="#3C3C3B" cx="77.9270162" cy="138.141104" r="2.84303186"></circle>
                <circle id="Oval-2" stroke="#3C3C3B" cx="142.957361" cy="68.8077911" r="1.46179199"></circle>
                <circle id="Oval-2" stroke="#3C3C3B" cx="138.973925" cy="96.5820104" r="1.27314553"></circle>
                <circle id="Oval-2" stroke="#55CBDF" cx="18.2189677" cy="113.810826" r="1.18044641"></circle>
                <circle id="Oval-2" stroke="#A899FF" cx="54.2553772" cy="98.0220366" r="1.16309208"></circle>
                <circle id="Oval-2" stroke="#3C3C3B" cx="31.7029886" cy="103.903916" r="2.49462891"></circle>
                <circle id="Oval-2" stroke="#3C3C3B" cx="12.6151295" cy="38.2675982" r="3.96376657"></circle>
                <circle id="Oval-2" stroke="#3C3C3B" cx="55.0266366" cy="30.7427712" r="3.56106042"></circle>
                <circle id="Oval-2" stroke="#3C3C3B" cx="93.981595" cy="97.3608398" r="4.54307566"></circle>
                <circle id="Oval-2" stroke="#3C3C3B" cx="112.541382" cy="96.3933639" r="2.0546875"></circle>
                <circle id="Oval-2" stroke="#3C3C3B" cx="95.981595" cy="23.0829445" r="1.46179199"></circle>
                <path d="M105.893894,12.7450652 C102.094925,10.9061374 102.590443,12.2937925 104.74155,8.47748711" id="Path-3" stroke="#FF829F"></path>
                <path d="M31.6155119,124.42169 C27.8165431,122.582762 28.3120608,123.970417 30.4631681,120.154112" id="Path-3" stroke="#CBCBCB" transform="translate(30.208360, 122.287901) rotate(74.000000) translate(-30.208360, -122.287901) "></path>
                <path d="M6.05851508,58.2695391 C2.25954633,56.4306112 2.75506405,57.8182663 4.90617133,54.0019609" id="Path-3" stroke="#9DA2FF" transform="translate(4.651363, 56.135750) rotate(66.000000) translate(-4.651363, -56.135750) "></path>
                <path d="M101.372193,81.9667136 C97.5732241,80.1277858 98.0687418,81.5154408 100.219849,77.6991355" id="Path-3" stroke="#3C3C3B" transform="translate(99.965041, 79.832925) rotate(66.000000) translate(-99.965041, -79.832925) "></path>
                <path d="M118.524875,111.327508 C114.725906,109.488581 115.221424,110.876236 117.372531,107.05993" id="Path-3" stroke="#3C3C3B" transform="translate(117.117723, 109.193719) rotate(114.000000) translate(-117.117723, -109.193719) "></path>
                <path d="M76.5127902,4.37848808 C72.7138215,2.53956025 73.2093392,3.92721531 75.3604465,0.110909957" id="Path-3" stroke="#3C3C3B" transform="translate(75.105638, 2.244699) rotate(114.000000) translate(-75.105638, -2.244699) "></path>
                <path d="M117.470188,60.3985673 C113.671219,58.5596395 114.166737,59.9472945 116.317844,56.1309892" id="Path-3" stroke="#3C3C3B" transform="translate(116.063036, 58.264778) rotate(247.000000) translate(-116.063036, -58.264778) "></path>
                <path d="M126.546577,52.9295092 C123.970957,51.6827554 124.306907,52.6235559 125.765312,50.0361824" id="Path-3" stroke="#9DA2FF" transform="translate(125.592557, 51.482846) rotate(181.000000) translate(-125.592557, -51.482846) "></path>
                <path d="M94.8894573,37.4291235 C89.4434254,34.7929188 90.1537775,36.7821991 93.2375088,31.3113142" id="Path-3" stroke="#52D7DC" transform="translate(92.872227, 34.370219) rotate(66.000000) translate(-92.872227, -34.370219) "></path>
                <path d="M137.022745,48.4073574 C133.181453,48.590141 137.745358,53.1957402 136.005031,57.4452056" id="Path-4" stroke="#CBCBCB" transform="translate(136.228862, 52.926281) rotate(56.000000) translate(-136.228862, -52.926281) "></path>
                <path d="M25.1023873,15.6762955 C21.5311144,15.8462307 25.7742053,20.1280853 24.1562125,24.0788401" id="Path-4" stroke="#A39DFF" transform="translate(24.364309, 19.877568) rotate(-43.000000) translate(-24.364309, -19.877568) "></path>
                <path d="M64.5782552,134.297433 C62.1252428,134.414157 65.0397091,137.355249 63.9283528,140.068918" id="Path-4" stroke="#FF829F" transform="translate(64.071289, 137.183176) rotate(-20.000000) translate(-64.071289, -137.183176) "></path>
            </g>
        </g>
    </g>
</svg>