<svg width="143" height="133" xmlns="http://www.w3.org/2000/svg"><g transform="translate(1 1)" stroke="#3C3C3B" fill="none" fill-rule="evenodd" opacity=".3"><path d="M.02 42.794H0l.023-.066a13.912 13.912 0 0 1 2.489-7.193L12.945 5.384A8 8 0 0 1 20.505 0h99.668a8 8 0 0 1 7.56 5.384l10.433 30.15a13.912 13.912 0 0 1 2.49 7.194l.022.066h-.02c.014.244.02.49.02.738 0 7.742-6.298 14.018-14.068 14.018s-14.068-6.276-14.068-14.018c0-.248.007-.494.02-.738h-.039c.013.244.02.49.02.738 0 7.742-6.299 14.018-14.068 14.018-7.77 0-14.068-6.276-14.068-14.018 0-.248.006-.494.019-.738h-.038c.012.244.019.49.019.738 0 7.742-6.299 14.018-14.068 14.018-7.77 0-14.068-6.276-14.068-14.018 0-.248.007-.494.02-.738h-.039c.013.244.02.49.02.738 0 7.742-6.3 14.018-14.069 14.018-7.769 0-14.067-6.276-14.067-14.018 0-.248.006-.494.019-.738h-.039c.013.244.02.49.02.738 0 7.742-6.299 14.018-14.068 14.018C6.298 57.55 0 51.274 0 43.532c0-.248.006-.494.02-.738zM135.882 62.346v60.74a8 8 0 0 1-8 8H15.993a8 8 0 0 1-8-8v-60.74"/><rect x="29.224" y="74.525" width="30.972" height="56.55" rx="5"/><rect x="75.635" y="74.036" width="42.163" height="32.571" rx="5"/></g></svg>