<?xml version="1.0" encoding="UTF-8"?>
<svg width="103px" height="37px" viewBox="0 0 103 37" version="1.1" xmlns="http://www.w3.org/2000/svg" xmlns:xlink="http://www.w3.org/1999/xlink">
    <!-- Generator: Sketch 49 (51002) - http://www.bohemiancoding.com/sketch -->
    <title>logo</title>
    <desc>Created with Sketch.</desc>
    <defs></defs>
    <g id="Symbols" stroke="none" stroke-width="1" fill="none" fill-rule="evenodd">
        <g id="Header" transform="translate(-15.000000, -15.000000)" fill="#313131">
            <g id="logo" transform="translate(15.000000, 15.000000)">
                <path d="M15.4410417,10.115065 C13.0461429,10.115065 11.0978078,12.0530522 11.0978078,14.4347153 C11.0978078,16.8168944 13.0461429,18.7546236 15.4410417,18.7546236 C17.8356811,18.7546236 19.7837568,16.8168944 19.7837568,14.4347153 C19.7837568,12.0530522 17.8356811,10.115065 15.4410417,10.115065 M15.4410417,19.4245228 C12.6750438,19.4245228 10.424591,17.1860225 10.424591,14.4347153 C10.424591,11.6836661 12.6750438,9.44542381 15.4410417,9.44542381 C18.2067802,9.44542381 20.457233,11.6836661 20.457233,14.4347153 C20.457233,17.1860225 18.2067802,19.4245228 15.4410417,19.4245228 Z M1.37625638,13.6815495 C2.13634824,13.6815495 2.75251277,14.2944415 2.75251277,15.0504964 C2.75251277,15.8065513 2.13634824,16.4191853 1.37625638,16.4191853 C0.616164531,16.4191853 0,15.8065513 0,15.0504964 C0,14.2944415 0.616164531,13.6815495 1.37625638,13.6815495 Z M31,15.0503932 C31,15.806706 30.3838355,16.4193401 29.6237436,16.4193401 C29.6089619,16.4193401 29.5952175,16.4154708 29.5801764,16.4149549 C29.3109934,16.4064425 29.0604821,16.3241561 28.8514633,16.1835727 C28.4871068,15.9372293 28.2474872,15.52167 28.2474872,15.0503932 C28.2474872,14.2943383 28.8636518,13.6814463 29.6237436,13.6814463 C30.3838355,13.6814463 31,14.2943383 31,15.0503932 Z M16.7614906,24.2454496 C16.7614906,25.0017624 16.145326,25.6146544 15.3852342,25.6146544 C14.6251423,25.6146544 14.0089778,25.0017624 14.0089778,24.2454496 C14.0089778,23.4896527 14.6251423,22.8767607 15.3852342,22.8767607 C16.145326,22.8767607 16.7614906,23.4896527 16.7614906,24.2454496 Z M16.7614906,35.6310531 C16.7614906,36.387366 16.145326,37 15.3852342,37 C14.6251423,37 14.0089778,36.387366 14.0089778,35.6310531 C14.0089778,34.8749983 14.6251423,34.2621063 15.3852342,34.2621063 C16.145326,34.2621063 16.7614906,34.8749983 16.7614906,35.6310531 Z M15.385312,27.2887059 C15.4944893,27.2887059 15.6026293,27.282773 15.7089539,27.2714232 L15.7094726,32.6053375 C15.6028886,32.5942456 15.4947486,32.5877968 15.385312,32.5877968 C15.2667988,32.5877968 15.1506197,32.5963092 15.0357371,32.6092068 L15.0357371,27.267296 C15.1506197,27.2804515 15.2667988,27.2887059 15.385312,27.2887059 Z M3.68526554,17.0406928 L12.9248809,22.444254 C12.7918454,22.623788 12.6769628,22.8169934 12.5854199,23.0228384 L3.16557121,17.5135173 C3.35669632,17.3760294 3.53096508,17.2176473 3.68526554,17.0406928 Z M2.7526943,17.7644264 L13.747445,33.0648001 C13.5570979,33.1857792 13.3794578,33.324557 13.2204895,33.482939 L2.09763049,18.004579 C2.32713622,17.9491195 2.54652814,17.8683808 2.7526943,17.7644264 Z M29.6238214,12.007369 C29.4319183,12.007369 29.2446831,12.0269733 29.0626345,12.0607649 C27.945966,5.54414451 22.1751287,0.66989919 15.496123,0.66989919 C8.81789534,0.66989919 3.04679876,5.54362861 1.92987088,12.0597331 C1.75015622,12.0267154 1.56551433,12.007369 1.37620452,12.007369 C1.33548994,12.007369 1.29607201,12.0120122 1.25561676,12.0133019 C2.39977413,5.14354634 8.46468991,0 15.496123,0 C22.5275562,0 28.5922126,5.14354634 29.7368886,12.012786 C29.6987674,12.0117542 29.6616834,12.007369 29.6238214,12.007369 Z M27.230349,16.9371512 C27.374017,17.1172012 27.5381719,17.2812581 27.7220358,17.4267426 L18.1779688,23.0085479 C18.0853885,22.8029609 17.9699873,22.6102713 17.8359145,22.4317691 L27.230349,16.9371512 Z M28.0645569,17.6606269 C28.2624246,17.7772208 28.470406,17.8739525 28.6892793,17.9430834 L17.5334856,33.4673587 C17.3732206,33.3102665 17.1950619,33.1725205 17.0036774,33.0533471 L28.0645569,17.6606269 Z" id="Combined-Shape"></path>
                <g id="typo" transform="translate(41.000000, 11.000000)">
                    <path d="M5.37765922,4.07113708 L3.34380277,4.07113708 L3.34380277,12.0567543 L5.3957751,12.0567543 C7.52299804,12.0567543 8.37374786,11.3994385 8.37374786,7.98421014 C8.37374786,4.81823922 7.57804246,4.07113708 5.37765922,4.07113708 M5.45151629,14.7242105 L0.218115879,14.7242105 L0.218115879,1.38625973 L5.41458775,1.38625973 C9.81605099,1.38625973 11.6471489,3.39572995 11.6471489,8.0023014 C11.6471489,12.8219477 9.55755125,14.7242105 5.45151629,14.7242105" id="Fill-25"></path>
                    <path d="M20.0253275,8.23340053 C19.988399,6.65008004 19.2484348,6.04502782 18.0465155,6.04502782 C16.6592568,6.04502782 16.1227479,6.66750126 15.9938464,8.23340053 L20.0253275,8.23340053 Z M13.0904275,9.19357753 C13.0904275,5.76159804 14.6623289,3.75212782 18.0277029,3.75212782 C20.89489,3.75212782 22.6514341,5.35152943 22.6514341,8.76675774 C22.6514341,9.17615631 22.6333182,9.69209231 22.577577,10.0639683 L16.0488908,10.0639683 C16.1973017,11.8610337 17.1037927,12.5371108 19.0261668,12.5371108 C20.0810687,12.5371108 21.0614168,12.3588784 22.0229522,12.0037536 L22.3371931,14.2262987 C21.3937736,14.6356973 20.0991846,14.9197971 18.6756941,14.9197971 C14.810043,14.9197971 13.0904275,12.9639306 13.0904275,9.19357753 Z" id="Fill-27"></path>
                    <path d="M27.682285,6.00991737 L27.682285,11.5230621 C27.682285,12.3592804 28.1261241,12.7150753 29.0138025,12.7150753 C29.3099275,12.7150753 29.6987223,12.6614715 29.9014808,12.5904466 L30.0680076,14.5992467 C29.6799096,14.760058 28.9399454,14.9021079 28.1449368,14.9021079 C25.9069282,14.9021079 24.8157946,13.657161 24.8157946,11.6121783 L24.8157946,6.00991737 L23.5581341,6.00991737 L23.5581341,3.94684341 L24.9453928,3.94684341 L25.4261605,1.50988336 L27.682285,1.31422971 L27.682285,3.94684341 L30.1787932,3.94684341 L30.1787932,6.00991737 L27.682285,6.00991737 Z" id="Fill-29"></path>
                    <path d="M38.408979,14.7244785 L38.408979,7.85917941 C38.408979,6.7569525 37.8355416,6.1880828 36.6148097,6.1880828 C35.7828725,6.1880828 35.0617209,6.54387763 34.7098547,7.00553985 L34.7098547,14.7244785 L31.8440611,14.7244785 L31.8440611,0.888683012 L34.7098547,0.745963053 L34.7098547,3.19967427 L34.6729262,4.62352363 L34.7286674,4.65836606 C35.5606045,3.98295893 36.5785779,3.73437158 37.5213007,3.73437158 C39.8882107,3.73437158 41.2754694,5.26274823 41.2754694,7.85917941 L41.2754694,14.7244785 L38.408979,14.7244785 Z" id="Fill-31"></path>
                    <path d="M49.8937532,8.23340053 C49.8575215,6.65008004 49.1175573,6.04502782 47.9149412,6.04502782 C46.5283793,6.04502782 45.9918704,6.66750126 45.8629689,8.23340053 L49.8937532,8.23340053 Z M42.95955,9.19357753 C42.95955,5.76159804 44.5314513,3.75212782 47.8968253,3.75212782 C50.7633157,3.75212782 52.5198598,5.35152943 52.5198598,8.76675774 C52.5198598,9.17615631 52.5024406,9.69209231 52.4466995,10.0639683 L45.9180133,10.0639683 C46.0657274,11.8610337 46.9722184,12.5371108 48.8952893,12.5371108 C49.9494944,12.5371108 50.9298425,12.3588784 51.8920747,12.0037536 L52.2063156,14.2262987 C51.2628961,14.6356973 49.9676103,14.9197971 48.5441198,14.9197971 C44.6791655,14.9197971 42.95955,12.9639306 42.95955,9.19357753 Z" id="Fill-33"></path>
                    <path d="M54.2961223,14.7244785 L54.2961223,4.01780136 L56.5891752,3.91126393 L56.847675,5.70765928 L56.9034162,5.70765928 C57.6064518,4.40910867 58.6975855,3.76854397 59.9733619,3.76854397 C60.4729422,3.76854397 60.8986655,3.84023897 61.1940938,3.92935519 L61.0094511,6.64974502 C60.6582817,6.54387763 60.2332551,6.47285267 59.789416,6.47285267 C58.2906749,6.47285267 57.1814253,7.52147585 57.1814253,9.3178712 L57.1814253,14.7244785 L54.2961223,14.7244785 Z" id="Fill-35"></path>
                </g>
            </g>
        </g>
    </g>
</svg>